<svg width="163" height="69" viewBox="0 0 163 69" fill="#ffffff" xmlns="http://www.w3.org/2000/svg">
	<path d="M13.2717 22.1233L0 43.6132V46.5604H23.4995V40.0521H9.49719L22.6471 18.5621V15.615H0.974071V22.1233H13.2717Z"/>
	<path d="M54.431 30.4123C54.431 26.9125 53.3351 23.2899 51.1435 20.2813C48.9518 17.15 44.9947 15.1238 40.1243 15.1238C29.5922 15.1238 25.3915 23.7197 25.3915 31.0877C25.3915 38.4557 29.5922 47.0516 40.1243 47.0516C46.821 47.0516 51.4479 44.043 54.0657 38.0259L47.9777 35.7541C46.1514 38.9469 43.6553 40.5433 40.5505 40.5433C36.1671 40.5433 33.4884 37.2891 33.3058 33.5437H54.431V30.4123ZM40.1243 21.6321C43.6553 21.6321 45.847 23.5969 46.6993 27.5265H33.4884C34.0364 24.2723 36.5324 21.6321 40.1243 21.6321Z"/>
	<path d="M84.5458 34.5261C84.5458 26.1757 87.2854 21.6321 91.1817 21.6321C93.6777 21.6321 94.9562 23.0443 94.9562 25.9301V46.5604H102.505V24.6407C102.505 18.6849 99.0351 15.1238 93.3733 15.1238C89.4771 15.1238 86.3722 17.2728 83.9979 21.5093C82.7194 17.2728 79.3711 15.1238 75.4139 15.1238C71.9438 15.1238 68.9607 16.9658 66.5864 20.5883V15.615H59.0373V46.5604H66.5864V35.2015C66.5864 26.3599 69.326 21.6321 73.2223 21.6321C75.7183 21.6321 76.9968 23.0443 76.9968 25.9301V46.5604H84.5458V34.5261Z"/>
	<path d="M23.5264 0L29.76 10.0825H33.6089L30.3457 0H23.5264Z"/>
	<path d="M57.1338 0L50.9002 10.0825H47.0513L50.3145 0H57.1338Z"/>
	<path d="M43.6913 0L42.0109 10.0825H38.6501L36.9697 0H43.6913Z"/>
	<path d="M110.907 53.7732C102.673 58.1248 92.8953 60.3363 81.5 60.3363C74.9569 60.3363 69.5166 59.7656 65.1055 58.6955C60.6944 57.6254 56.3568 55.9846 52.0928 53.7732L52.0928 61.4064C55.0335 62.9758 57.5331 64.1886 59.6651 65.116C61.7972 66.0434 64.8114 66.8994 68.7079 67.6841C72.6043 68.4689 76.8684 68.8969 81.5 68.8969C90.6898 68.8969 99.0709 66.8994 103.261 65.116C105.393 64.1886 107.967 62.9758 110.907 61.4064L110.907 53.7732Z"/>
	<path d="M136.115 30.4123C136.115 26.9125 135.037 23.2899 132.881 20.2813C130.725 17.15 126.832 15.1238 122.041 15.1238C111.68 15.1238 107.548 23.7197 107.548 31.0877C107.548 38.4557 111.68 47.0516 122.041 47.0516C128.628 47.0516 133.18 44.043 135.755 38.0259L129.766 35.7541C127.97 38.9469 125.514 40.5433 122.46 40.5433C118.148 40.5433 115.513 37.2891 115.333 33.5437H136.115V30.4123ZM122.041 21.6321C125.514 21.6321 127.67 23.5969 128.509 27.5265H115.513C116.052 24.2723 118.507 21.6321 122.041 21.6321Z"/>
	<path d="M149.713 21.8388L163 44.0109V47.0516H139.474V40.3366H153.492L140.327 18.1645V15.1238H162.025V21.8388H149.713Z"/>
</svg>
