<svg width="163" height="70" viewBox="0 0 163 70" fill="none" xmlns="http://www.w3.org/2000/svg">
<path d="M13.2717 22.6433L0 44.1333V47.0805H23.4995V40.5721H9.4972L22.6472 19.0822V16.135H0.974072V22.6433H13.2717Z" fill="#202232"/>
<path d="M54.431 30.9323C54.431 27.4325 53.3352 23.8099 51.1435 20.8014C48.9519 17.67 44.9947 15.6438 40.1243 15.6438C29.5922 15.6438 25.3915 24.2397 25.3915 31.6077C25.3915 38.9757 29.5922 47.5717 40.1243 47.5717C46.8211 47.5717 51.4479 44.5631 54.0657 38.5459L47.9778 36.2741C46.1514 39.4669 43.6553 41.0633 40.5505 41.0633C36.1672 41.0633 33.4885 37.8091 33.3058 34.0637H54.431V30.9323ZM40.1243 22.1521C43.6553 22.1521 45.847 24.1169 46.6993 28.0465H33.4885C34.0364 24.7923 36.5324 22.1521 40.1243 22.1521Z" fill="#202232"/>
<path d="M84.5459 35.0461C84.5459 26.6957 87.2855 22.1521 91.1818 22.1521C93.6778 22.1521 94.9563 23.5643 94.9563 26.4501V47.0805H102.505V25.1607C102.505 19.205 99.0352 15.6438 93.3734 15.6438C89.4771 15.6438 86.3723 17.7928 83.998 22.0293C82.7195 17.7928 79.3712 15.6438 75.414 15.6438C71.9439 15.6438 68.9608 17.4858 66.5865 21.1084V16.135H59.0374V47.0805H66.5865V35.7215C66.5865 26.8799 69.326 22.1521 73.2223 22.1521C75.7184 22.1521 76.9969 23.5643 76.9969 26.4501V47.0805H84.5459V35.0461Z" fill="#202232"/>
<path d="M23.5263 0.52002L29.7599 10.6025H33.6088L30.3456 0.52002H23.5263Z" fill="#31C77F"/>
<path d="M57.1338 0.52002L50.9002 10.6025H47.0513L50.3145 0.52002H57.1338Z" fill="#31C77F"/>
<path d="M43.6914 0.52002L42.0109 10.6025H38.6501L36.9697 0.52002H43.6914Z" fill="#31C77F"/>
<path d="M110.907 54.2932C102.673 58.6448 92.8954 60.8563 81.5001 60.8563C74.9569 60.8563 69.5166 60.2856 65.1055 59.2155C60.6944 58.1455 56.3568 56.5047 52.0928 54.2932L52.0928 61.9264C55.0335 63.4958 57.5331 64.7086 59.6652 65.636C61.7972 66.5634 64.8114 67.4194 68.7079 68.2042C72.6044 68.9889 76.8684 69.4169 81.5001 69.4169C90.6898 69.4169 99.0709 67.4195 103.261 65.636C105.393 64.7086 107.967 63.4958 110.907 61.9264L110.907 54.2932Z" fill="#F8407E"/>
<path d="M136.115 30.9323C136.115 27.4325 135.037 23.8099 132.881 20.8014C130.725 17.67 126.832 15.6438 122.041 15.6438C111.68 15.6438 107.548 24.2397 107.548 31.6077C107.548 38.9757 111.68 47.5717 122.041 47.5717C128.629 47.5717 133.18 44.5631 135.755 38.5459L129.767 36.2741C127.97 39.4669 125.514 41.0633 122.46 41.0633C118.148 41.0633 115.513 37.8091 115.333 34.0637H136.115V30.9323ZM122.041 22.1521C125.514 22.1521 127.67 24.1169 128.509 28.0465H115.513C116.052 24.7923 118.507 22.1521 122.041 22.1521Z" fill="#31C77F"/>
<path d="M149.713 22.3588L163 44.5309V47.5717H139.474V40.8567H153.492L140.327 18.6845V15.6438H162.025V22.3588H149.713Z" fill="#31C77F"/>
</svg>
